<svg width="28" height="38" viewBox="0 0 28 38" fill="none" xmlns="http://www.w3.org/2000/svg">
<rect width="28" height="38" fill="#F2F2F2"/>
<g id="Artboard" clip-path="url(#clip0_0_1)">
<rect width="1400" height="1318" transform="translate(-1014 -356)" fill="white"/>
<rect id="Background" x="-1014" y="-356" width="1400" height="1318" fill="black" fill-opacity="0.01"/>
<g id="Services" clip-path="url(#clip1_0_1)">
<g id="3 - Web Security" clip-path="url(#clip2_0_1)">
<path id="Circle-3" d="M50.579 22.309C50.579 3.1877 35.0781 -12.3129 15.9568 -12.3129C-3.16442 -12.3129 -18.6653 3.18771 -18.6653 22.309C-18.6653 41.43 -3.16446 56.9314 15.9568 56.9314C35.0781 56.9314 50.579 41.43 50.579 22.309Z" fill="white" stroke="#FED136" stroke-width="3"/>
<path id="Combined shape 130" fill-rule="evenodd" clip-rule="evenodd" d="M13.9994 0C19.1539 0 23.3323 3.65628 23.3323 8.16672V17.4996H24.499C26.4319 17.4996 27.9988 19.0663 27.9988 20.9997V33.8321C27.9988 35.7648 26.4319 37.3322 24.499 37.3322H3.4999C1.56696 37.3322 0 35.7648 0 33.8321V20.9997C0 19.0663 1.56696 17.4996 3.4999 17.4996H4.66649V8.16672C4.66649 3.65628 8.84498 0 13.9994 0ZM18.4001 17.4996H9.59857C9.42651 17.1346 9.33289 16.7417 9.33289 16.3325V8.16672C9.33289 6.23404 11.4222 4.66656 13.9994 4.66656C16.5766 4.66656 18.6658 6.23404 18.6658 8.16672V16.3325C18.6658 16.7417 18.5722 17.1346 18.4001 17.4996ZM16.3326 29.7079C17.7274 28.9009 18.6658 27.3926 18.6658 25.6654C18.6658 23.089 16.5766 20.9997 13.9994 20.9997C11.4222 20.9997 9.33289 23.089 9.33289 25.6654C9.33289 27.3927 10.2714 28.901 11.6662 29.7079V31.4984C11.6662 32.788 12.7108 33.8321 13.9994 33.8321C15.2881 33.8321 16.3326 32.788 16.3326 31.4984V29.7079Z" fill="#FED136"/>
</g>
</g>
</g>
<defs>
<clipPath id="clip0_0_1">
<rect width="1400" height="1318" fill="white" transform="translate(-1014 -356)"/>
</clipPath>
<clipPath id="clip1_0_1">
<rect width="934" height="330" fill="white" transform="translate(-781 -164)"/>
</clipPath>
<clipPath id="clip2_0_1">
<rect width="274" height="185" fill="white" transform="translate(-121 -19)"/>
</clipPath>
</defs>
</svg>
