<svg width="282" height="185" viewBox="0 0 282 185" fill="none" xmlns="http://www.w3.org/2000/svg">
<g filter="url(#filter0_d_0_34)">
<rect x="4.5" y="0.5" width="273" height="184" stroke="black" shape-rendering="crispEdges"/>
<path d="M175.537 40.3166C175.537 21.1949 160.036 5.69453 140.915 5.69453C121.794 5.69453 106.293 21.1949 106.293 40.3166C106.293 59.4374 121.794 74.9384 140.915 74.9384C160.036 74.9384 175.537 59.4374 175.537 40.3166Z" fill="white" stroke="#FED136" stroke-width="3"/>
<path fill-rule="evenodd" clip-rule="evenodd" d="M153.634 22H126.727C124.498 22 122.691 23.8069 122.691 26.0358V43.5256C122.691 43.9973 122.772 44.4502 122.92 44.871H122.691V47.5617H126.727V26.0358H153.634V47.5617H157.67V44.871H157.44C157.589 44.4502 157.67 43.9973 157.67 43.5256V26.0358C157.67 23.8069 155.863 22 153.634 22ZM122.691 50.2519H157.67C159.156 50.2519 160.361 51.4571 160.361 52.9432C160.361 54.4291 157.811 55.6338 156.325 55.6338H124.036C122.55 55.6338 120 54.4291 120 52.9432C120 51.4571 121.205 50.2519 122.691 50.2519ZM144.217 52.9432H136.144C135.401 52.9432 134.799 53.2443 134.799 53.6156C134.799 53.987 135.401 54.2883 136.144 54.2883H144.217C144.96 54.2883 145.562 53.987 145.562 53.6156C145.562 53.2443 144.96 52.9432 144.217 52.9432ZM131.147 37.7839L133.041 35.8807C133.564 35.3556 134.412 35.3556 134.935 35.8807L137.418 38.375L145.421 30.337C145.944 29.8113 146.792 29.8113 147.315 30.337L149.209 32.2391C149.732 32.7645 149.732 33.6167 149.209 34.142L138.791 44.6063C138.343 45.0562 137.657 45.1208 137.14 44.8002C136.703 44.9046 136.224 44.7854 135.882 44.4427L131.147 39.6864C130.624 39.1611 130.624 38.3096 131.147 37.7839Z" fill="#FED136"/>
</g>
<defs>
<filter id="filter0_d_0_34" x="0" y="0" width="282" height="193" filterUnits="userSpaceOnUse" color-interpolation-filters="sRGB">
<feFlood flood-opacity="0" result="BackgroundImageFix"/>
<feColorMatrix in="SourceAlpha" type="matrix" values="0 0 0 0 0 0 0 0 0 0 0 0 0 0 0 0 0 0 127 0" result="hardAlpha"/>
<feOffset dy="4"/>
<feGaussianBlur stdDeviation="2"/>
<feComposite in2="hardAlpha" operator="out"/>
<feColorMatrix type="matrix" values="0 0 0 0 0 0 0 0 0 0 0 0 0 0 0 0 0 0 0.25 0"/>
<feBlend mode="normal" in2="BackgroundImageFix" result="effect1_dropShadow_0_34"/>
<feBlend mode="normal" in="SourceGraphic" in2="effect1_dropShadow_0_34" result="shape"/>
</filter>
</defs>
</svg>
